<svg width="211" height="33" viewBox="0 0 211 33" fill="none" xmlns="http://www.w3.org/2000/svg">
<g filter="url(#filter0_d_0_1)">
<path d="M19.192 1.6V24H14.936L5.752 9.28V24H1.176V1.6H5.624L14.616 16.096V1.6H19.192ZM31.007 24.32C29.9617 24.32 29.023 24.1067 28.191 23.68C27.359 23.232 26.7083 22.624 26.239 21.856C25.7697 21.0667 25.535 20.192 25.535 19.232C25.535 17.5893 26.1857 16.3307 27.487 15.456C28.7883 14.5813 30.6443 14.144 33.055 14.144H35.551V13.472C35.551 12.6187 35.295 11.968 34.783 11.52C34.2923 11.0507 33.5883 10.816 32.671 10.816C31.711 10.816 30.7937 10.9867 29.919 11.328C29.0443 11.6693 28.3297 12.1387 27.775 12.736L25.983 10.368C26.8577 9.536 27.8923 8.88533 29.087 8.416C30.2817 7.92533 31.519 7.68 32.799 7.68C34.9323 7.68 36.607 8.18133 37.823 9.184C39.039 10.1867 39.647 11.5733 39.647 13.344V20.64C39.647 21.1307 39.679 21.7067 39.743 22.368C39.8283 23.0293 39.9243 23.5733 40.031 24H36.415C36.287 23.7227 36.191 23.456 36.127 23.2C36.063 22.9227 36.0097 22.5493 35.967 22.08H35.903C34.687 23.5733 33.055 24.32 31.007 24.32ZM31.999 21.248C33.023 21.248 33.8657 20.992 34.527 20.48C35.2097 19.9467 35.551 19.2747 35.551 18.464V16.864H32.927C31.839 16.864 30.9963 17.0667 30.399 17.472C29.823 17.8773 29.535 18.464 29.535 19.232C29.535 19.872 29.7483 20.3733 30.175 20.736C30.623 21.0773 31.231 21.248 31.999 21.248ZM54.9525 24.32C54.0138 24.32 53.1072 24.096 52.2325 23.648C51.3792 23.2 50.7072 22.6133 50.2165 21.888H50.1525C50.1525 22.912 50.1418 23.616 50.1205 24H46.2805C46.3445 23.3813 46.3765 21.9627 46.3765 19.744V0.255999H50.4405V9.632H50.5045C51.4218 8.33067 52.9685 7.68 55.1445 7.68C57.1925 7.68 58.7925 8.39467 59.9445 9.824C61.1178 11.2533 61.7045 13.2267 61.7045 15.744C61.7045 18.4107 61.0965 20.512 59.8805 22.048C58.6858 23.5627 57.0432 24.32 54.9525 24.32ZM54.1525 21.184C55.2832 21.184 56.1472 20.7253 56.7445 19.808C57.3418 18.8693 57.6405 17.536 57.6405 15.808C57.6405 14.1653 57.3418 12.9067 56.7445 12.032C56.1472 11.1573 55.2832 10.72 54.1525 10.72C53.0858 10.72 52.2005 11.0613 51.4965 11.744C50.7925 12.4267 50.4405 13.2907 50.4405 14.336V17.632C50.4405 18.6987 50.7712 19.5627 51.4325 20.224C52.1152 20.864 53.0218 21.184 54.1525 21.184ZM70.1082 6.144C69.3189 6.144 68.6896 5.93067 68.2202 5.504C67.7509 5.056 67.5162 4.46933 67.5162 3.744C67.5162 3.01867 67.7509 2.44267 68.2202 2.016C68.6896 1.568 69.3189 1.344 70.1082 1.344C70.8976 1.344 71.5269 1.568 71.9962 2.016C72.4869 2.44267 72.7322 3.01867 72.7322 3.744C72.7322 4.46933 72.4976 5.056 72.0282 5.504C71.5589 5.93067 70.9189 6.144 70.1082 6.144ZM68.0922 8H72.1562V24H68.0922V8ZM83.7223 24.32C82.3569 24.32 81.3116 23.9573 80.5863 23.232C79.8823 22.4853 79.5303 21.4187 79.5303 20.032V0.255999H83.5943V20.096C83.5943 20.5653 83.7116 20.9173 83.9463 21.152C84.2023 21.3653 84.5756 21.472 85.0663 21.472C85.5569 21.472 86.1649 21.3333 86.8903 21.056L87.4983 23.232C86.5383 23.9573 85.2796 24.32 83.7223 24.32ZM96.9633 24.32C95.9179 24.32 94.9793 24.1067 94.1473 23.68C93.3153 23.232 92.6646 22.624 92.1953 21.856C91.7259 21.0667 91.4913 20.192 91.4913 19.232C91.4913 17.5893 92.1419 16.3307 93.4433 15.456C94.7446 14.5813 96.6006 14.144 99.0113 14.144H101.507V13.472C101.507 12.6187 101.251 11.968 100.739 11.52C100.249 11.0507 99.5446 10.816 98.6273 10.816C97.6673 10.816 96.7499 10.9867 95.8753 11.328C95.0006 11.6693 94.2859 12.1387 93.7313 12.736L91.9393 10.368C92.8139 9.536 93.8486 8.88533 95.0433 8.416C96.2379 7.92533 97.4753 7.68 98.7552 7.68C100.889 7.68 102.563 8.18133 103.779 9.184C104.995 10.1867 105.603 11.5733 105.603 13.344V20.64C105.603 21.1307 105.635 21.7067 105.699 22.368C105.785 23.0293 105.881 23.5733 105.987 24H102.371C102.243 23.7227 102.147 23.456 102.083 23.2C102.019 22.9227 101.966 22.5493 101.923 22.08H101.859C100.643 23.5733 99.0113 24.32 96.9633 24.32ZM97.9553 21.248C98.9793 21.248 99.8219 20.992 100.483 20.48C101.166 19.9467 101.507 19.2747 101.507 18.464V16.864H98.8833C97.7953 16.864 96.9526 17.0667 96.3553 17.472C95.7793 17.8773 95.4913 18.464 95.4913 19.232C95.4913 19.872 95.7046 20.3733 96.1313 20.736C96.5793 21.0773 97.1873 21.248 97.9553 21.248Z" fill="black"/>
<path d="M135.45 20.288H127.738L126.618 24H121.818L129.562 1.6H133.626L141.37 24H136.57L135.45 20.288ZM134.33 16.608L131.61 7.648L128.858 16.608H134.33ZM151.054 24.32C149.688 24.32 148.643 23.9573 147.918 23.232C147.214 22.4853 146.862 21.4187 146.862 20.032V0.255999H150.926V20.096C150.926 20.5653 151.043 20.9173 151.278 21.152C151.534 21.3653 151.907 21.472 152.398 21.472C152.888 21.472 153.496 21.3333 154.222 21.056L154.83 23.232C153.87 23.9573 152.611 24.32 151.054 24.32ZM164.295 24.32C163.249 24.32 162.311 24.1067 161.479 23.68C160.647 23.232 159.996 22.624 159.527 21.856C159.057 21.0667 158.823 20.192 158.823 19.232C158.823 17.5893 159.473 16.3307 160.775 15.456C162.076 14.5813 163.932 14.144 166.343 14.144H168.839V13.472C168.839 12.6187 168.583 11.968 168.071 11.52C167.58 11.0507 166.876 10.816 165.959 10.816C164.999 10.816 164.081 10.9867 163.207 11.328C162.332 11.6693 161.617 12.1387 161.063 12.736L159.271 10.368C160.145 9.536 161.18 8.88533 162.375 8.416C163.569 7.92533 164.807 7.68 166.087 7.68C168.22 7.68 169.895 8.18133 171.111 9.184C172.327 10.1867 172.935 11.5733 172.935 13.344V20.64C172.935 21.1307 172.967 21.7067 173.031 22.368C173.116 23.0293 173.212 23.5733 173.319 24H169.703C169.575 23.7227 169.479 23.456 169.415 23.2C169.351 22.9227 169.297 22.5493 169.255 22.08H169.191C167.975 23.5733 166.343 24.32 164.295 24.32ZM165.287 21.248C166.311 21.248 167.153 20.992 167.815 20.48C168.497 19.9467 168.839 19.2747 168.839 18.464V16.864H166.215C165.127 16.864 164.284 17.0667 163.687 17.472C163.111 17.8773 162.823 18.464 162.823 19.232C162.823 19.872 163.036 20.3733 163.463 20.736C163.911 21.0773 164.519 21.248 165.287 21.248ZM179.536 12.256C179.536 10.1227 179.493 8.704 179.408 8H182.992C183.099 8.85333 183.152 9.78133 183.152 10.784H183.216C183.557 9.824 184.176 9.06667 185.072 8.512C185.968 7.95733 187.013 7.68 188.208 7.68C189.36 7.68 190.341 7.936 191.152 8.448C191.963 8.93867 192.507 9.62133 192.784 10.496C193.211 9.62133 193.861 8.93867 194.736 8.448C195.611 7.936 196.592 7.68 197.68 7.68C199.451 7.68 200.837 8.256 201.84 9.408C202.864 10.5387 203.376 12.1067 203.376 14.112V24H199.312V14.56C199.312 13.4293 199.067 12.5547 198.576 11.936C198.085 11.296 197.413 10.976 196.56 10.976C195.621 10.976 194.864 11.3067 194.288 11.968C193.733 12.608 193.456 13.4827 193.456 14.592V24H189.424V14.688C189.424 13.5147 189.189 12.608 188.72 11.968C188.251 11.3067 187.589 10.976 186.736 10.976C185.819 10.976 185.061 11.328 184.464 12.032C183.888 12.7147 183.6 13.6 183.6 14.688V24H179.536V12.256Z" fill="#F3B71B"/>
</g>
<defs>
<filter id="filter0_d_0_1" x="0.175995" y="0.255997" width="210.2" height="32.064" filterUnits="userSpaceOnUse" color-interpolation-filters="sRGB">
<feFlood flood-opacity="0" result="BackgroundImageFix"/>
<feColorMatrix in="SourceAlpha" type="matrix" values="0 0 0 0 0 0 0 0 0 0 0 0 0 0 0 0 0 0 127 0" result="hardAlpha"/>
<feOffset dx="3" dy="4"/>
<feGaussianBlur stdDeviation="2"/>
<feComposite in2="hardAlpha" operator="out"/>
<feColorMatrix type="matrix" values="0 0 0 0 0 0 0 0 0 0 0 0 0 0 0 0 0 0 0.25 0"/>
<feBlend mode="normal" in2="BackgroundImageFix" result="effect1_dropShadow_0_1"/>
<feBlend mode="normal" in="SourceGraphic" in2="effect1_dropShadow_0_1" result="shape"/>
</filter>
</defs>
</svg>
